<svg width="20" height="20" viewBox="0 0 20 20" fill="none" xmlns="http://www.w3.org/2000/svg">
<path d="M10 2C5.58065 2 2 5.46875 2 9.75C2 14.0313 5.58065 17.5 10 17.5C14.4194 17.5 18 14.0313 18 9.75C18 5.46875 14.4194 2 10 2ZM16.4516 9.75C16.4516 10.4531 16.3258 11.1313 16.1032 11.7625H15.4484C15.3097 11.7625 15.1774 11.7094 15.0806 11.6125L14.0484 10.5938C13.9032 10.45 13.9032 10.2156 14.0516 10.0719L14.4548 9.68125V9.40938C14.4548 9.31563 14.4161 9.225 14.3484 9.15938L14.0452 8.86563C13.9774 8.8 13.8839 8.7625 13.7871 8.7625H13.271C13.071 8.7625 12.9065 8.60313 12.9065 8.40938C12.9065 8.31563 12.9452 8.225 13.0129 8.15938L13.3161 7.86563C13.3839 7.8 13.4774 7.7625 13.5742 7.7625H14.6065C14.8065 7.7625 14.971 7.60313 14.971 7.40938V7.11563C14.971 6.92188 14.8065 6.7625 14.6065 6.7625H13.4226C13.1387 6.7625 12.9065 6.9875 12.9065 7.2625V7.40313C12.9065 7.61875 12.7645 7.80938 12.5548 7.87813L11.5355 8.20625C11.429 8.24063 11.3581 8.33438 11.3581 8.44375V8.5125C11.3581 8.65 11.2419 8.7625 11.1 8.7625H10.5839C10.4419 8.7625 10.3258 8.65 10.3258 8.5125C10.3258 8.375 10.2097 8.2625 10.0677 8.2625H9.96774C9.87097 8.2625 9.78065 8.31563 9.73548 8.4L9.43226 8.98438C9.34516 9.15313 9.16774 9.25938 8.97097 9.25938H8.25806C7.97419 9.25938 7.74194 9.03438 7.74194 8.75938V7.96875C7.74194 7.8375 7.79677 7.70938 7.89355 7.61563L8.54194 6.9875C8.69032 6.84375 8.77419 6.64688 8.77419 6.44063C8.77419 6.33438 8.84516 6.2375 8.95161 6.20313L10.2419 5.7875C10.2968 5.76875 10.3452 5.74063 10.3839 5.70313L11.2484 4.86563C11.3161 4.8 11.3548 4.70938 11.3548 4.61563C11.3548 4.42188 11.1903 4.2625 10.9903 4.2625H10.3226L9.80645 4.7625V5.0125C9.80645 5.15 9.69032 5.2625 9.54839 5.2625H9.03226C8.89032 5.2625 8.77419 5.15 8.77419 5.0125V4.3875C8.77419 4.30938 8.8129 4.23438 8.87742 4.1875L9.80968 3.50938C9.87097 3.50625 9.93226 3.5 9.99355 3.5C13.5581 3.5 16.4516 6.30313 16.4516 9.75ZM6.19677 6.40938C6.19677 6.31563 6.23548 6.225 6.30323 6.15938L7.12258 5.36563C7.19032 5.3 7.28387 5.2625 7.38065 5.2625C7.58065 5.2625 7.74516 5.42188 7.74516 5.61563V6.11563C7.74516 6.20938 7.70645 6.3 7.63871 6.36563L7.33548 6.65938C7.26774 6.725 7.17419 6.7625 7.07742 6.7625H6.56129C6.36129 6.7625 6.19677 6.60313 6.19677 6.40938ZM10.3258 15.9844V15.7625C10.3258 15.4875 10.0935 15.2625 9.80968 15.2625H9.15806C8.80968 15.2625 8.29677 15.0969 8.01613 14.8938L7.3 14.3719C6.92903 14.1031 6.7129 13.6813 6.7129 13.2344V12.4875C6.7129 11.9875 6.98387 11.525 7.42581 11.2688L8.80968 10.4656C9.03871 10.3344 9.3 10.2625 9.56452 10.2625H10.571C10.9226 10.2625 11.2613 10.3844 11.5258 10.6031L12.9194 11.7625H13.5097C13.7839 11.7625 14.0452 11.8688 14.2387 12.0563L14.7968 12.5969C14.9065 12.7031 15.0581 12.7625 15.2129 12.7625H15.6452C14.6 14.6031 12.6194 15.8719 10.3258 15.9844Z" fill="#0073E6"/>
</svg>
